# xmcd
#
# Track frame offsets:
# 150
# 13933
# 37643
# 53553
# 65514
# 81193
# 99275
# 116401
# 140455
# 140758
# 141079
# 141408
# 141775
# 142193
# 142690
# 143186
# 143683
# 144180
# 144676
# 145173
# 145669
# 146166
# 146663
# 146995
# 147331
# 147656
# 148152
# 148774
# 149193
# 149552
# 149869
# 150235
# 158794
#
# Disc length: 2771 seconds
#
#
# Revision: 0
# Processed by: cddbd v1.5.2PL0 Copyright (c) Steve Scherf et al.
# Submitted via: FreeRIP 2.941 
#
DISCID=3a0ad121
DTITLE=US Electric - Threshold
DYEAR=2006
DGENRE=Anime
TTITLE0=Threshold
TTITLE1=A Dead Set Head
TTITLE2=Watching
TTITLE3=The Wages of Sin
TTITLE4=Realign
TTITLE5=Confirmation
TTITLE6=Trenchored
TTITLE7=The End of it All
TTITLE8=09
TTITLE9=10
TTITLE10=11
TTITLE11=12
TTITLE12=13
TTITLE13=14
TTITLE14=15
TTITLE15=16
TTITLE16=17
TTITLE17=18
TTITLE18=19
TTITLE19=20
TTITLE20=21
TTITLE21=22
TTITLE22=23
TTITLE23=24
TTITLE24=25
TTITLE25=26
TTITLE26=27
TTITLE27=28
TTITLE28=29
TTITLE29=30
TTITLE30=31
TTITLE31=32
TTITLE32=33
EXTD=
EXTT0=
EXTT1=
EXTT2=
EXTT3=
EXTT4=
EXTT5=
EXTT6=
EXTT7=
EXTT8=
EXTT9=
EXTT10=
EXTT11=
EXTT12=
EXTT13=
EXTT14=
EXTT15=
EXTT16=
EXTT17=
EXTT18=
EXTT19=
EXTT20=
EXTT21=
EXTT22=
EXTT23=
EXTT24=
EXTT25=
EXTT26=
EXTT27=
EXTT28=
EXTT29=
EXTT30=
EXTT31=
EXTT32=
PLAYORDER=
